<?xml version="1.0" encoding="UTF-8" standalone="no"?>
<!-- Created with Inkscape (http://www.inkscape.org/) -->

<svg
   width="135.46666mm"
   height="135.46666mm"
   viewBox="0 0 135.46666 135.46666"
   version="1.1"
   id="svg1"
   xml:space="preserve"
   inkscape:version="1.3.2 (091e20ef0f, 2023-11-25, custom)"
   sodipodi:docname="logo.svg"
   inkscape:export-filename="logo.png"
   inkscape:export-xdpi="96"
   inkscape:export-ydpi="96"
   xmlns:inkscape="http://www.inkscape.org/namespaces/inkscape"
   xmlns:sodipodi="http://sodipodi.sourceforge.net/DTD/sodipodi-0.dtd"
   xmlns="http://www.w3.org/2000/svg"
   xmlns:svg="http://www.w3.org/2000/svg"><sodipodi:namedview
     id="namedview1"
     pagecolor="#ffffff"
     bordercolor="#000000"
     borderopacity="0.25"
     inkscape:showpageshadow="2"
     inkscape:pageopacity="0.0"
     inkscape:pagecheckerboard="0"
     inkscape:deskcolor="#d1d1d1"
     inkscape:document-units="mm"
     inkscape:zoom="0.71624579"
     inkscape:cx="240.14103"
     inkscape:cy="233.16018"
     inkscape:window-width="1920"
     inkscape:window-height="1008"
     inkscape:window-x="0"
     inkscape:window-y="0"
     inkscape:window-maximized="1"
     inkscape:current-layer="g1" /><defs
     id="defs1" /><g
     inkscape:label="Layer 1"
     inkscape:groupmode="layer"
     id="layer1"
     transform="translate(-40.453269,-35.885279)"><g
       id="g1"
       transform="translate(5.8728626,8.023073)"><g
         id="g9"
         transform="matrix(1.2014445,0,0,1.2014445,-11.599109,5.3637788)"
         style="fill:#f2f2f2"><path
           sodipodi:type="star"
           style="fill:#f2f2f2;fill-opacity:1;stroke:none;stroke-width:2.11667;stroke-linecap:round;stroke-linejoin:round"
           id="path8"
           sodipodi:sides="4"
           sodipodi:cx="106.81874"
           sodipodi:cy="125.49354"
           sodipodi:r1="60.482967"
           sodipodi:r2="44.528648"
           sodipodi:arg1="0.78539816"
           sodipodi:arg2="1.5707963"
           inkscape:flatsided="true"
           inkscape:rounded="0.3"
           inkscape:randomized="0"
           d="m 149.58666,168.26145 c -18.14489,18.14489 -67.390945,18.14489 -85.535835,0 -18.144891,-18.14489 -18.144891,-67.39094 -10e-7,-85.535828 18.14489,-18.144891 67.390946,-18.144891 85.535836,-10e-7 18.14489,18.144889 18.14489,67.390939 0,85.535829 z"
           inkscape:transform-center-y="-2.6145327e-06"
           transform="translate(-12.005501,-50.390812)" /></g><g
         id="g10"
         transform="matrix(0.79561618,0,0,0.79561618,130.46704,21.503243)"
         inkscape:export-filename="logo.png"
         inkscape:export-xdpi="120.74183"
         inkscape:export-ydpi="120.74183"><g
           id="g13"><path
             style="fill:#fcd20a;fill-opacity:1"
             d="m -22.950151,160.23231 c 0,-0.0549 0.20836,-0.2633 0.463021,-0.46302 0.419644,-0.32911 0.429002,-0.31975 0.0999,0.0999 -0.345644,0.44073 -0.562916,0.58089 -0.562916,0.36313 z m -14.302057,-19.27404 c -6.322149,-7.88253 -11.651362,-14.54804 -11.842696,-14.81224 -0.313501,-0.4329 0.235585,-1.09065 5.55625,-6.65587 l 5.904129,-6.17549 0.132292,6.50929 c 0.138141,6.79714 0.179952,7.03899 1.416848,8.19584 0.595474,0.55694 1.191147,0.68732 5.249815,1.14911 2.51797,0.28649 4.592671,0.53957 4.610446,0.56241 0.08064,0.10358 0.630998,25.39556 0.554284,25.47227 -0.0476,0.0476 -5.259219,-6.36279 -11.581368,-14.24532 z m 15.449345,7.73227 c 0,-1.09141 0.0467,-1.53789 0.103786,-0.99219 0.05708,0.5457 0.05708,1.43867 0,1.98438 -0.05708,0.5457 -0.103786,0.0992 -0.103786,-0.99219 z m -54.097701,-0.19844 c -0.329107,-0.41964 -0.319749,-0.429 0.0999,-0.0999 0.254662,0.19972 0.463021,0.40808 0.463021,0.46302 0,0.21776 -0.217272,0.0776 -0.562916,-0.36313 z m 4.531666,0.0985 c 0,-0.0549 0.208359,-0.2633 0.463021,-0.46302 0.419644,-0.3291 0.429002,-0.31975 0.09989,0.0999 -0.345643,0.44073 -0.562915,0.58089 -0.562915,0.36312 z m -5.535362,-2.43569 c 0.0127,-0.30823 0.07539,-0.37092 0.159853,-0.15985 0.07643,0.19099 0.06703,0.4192 -0.02089,0.50711 -0.08792,0.0879 -0.150453,-0.0683 -0.138965,-0.34726 z m 10.95932,-3.28524 c 0.568389,-0.58209 1.092966,-1.05834 1.165726,-1.05834 0.07276,0 -0.332754,0.47625 -0.901143,1.05834 -0.568389,0.58208 -1.092966,1.05833 -1.165726,1.05833 -0.07276,0 0.332754,-0.47625 0.901143,-1.05833 z m 43.87536,-5.42396 c 0.0012,-1.01865 0.049,-1.40295 0.106272,-0.854 0.05728,0.54895 0.05632,1.38239 -0.0021,1.85209 -0.05845,0.46969 -0.105312,0.0206 -0.104138,-0.99809 z m -38.583694,-0.13229 c 0.568389,-0.58209 1.092966,-1.05834 1.165727,-1.05834 0.07276,0 -0.332754,0.47625 -0.901143,1.05834 -0.56839,0.58208 -1.092966,1.05833 -1.165727,1.05833 -0.07276,0 0.332754,-0.47625 0.901143,-1.05833 z m -15.192652,-0.94809 c 0.0127,-0.30823 0.07539,-0.37092 0.159852,-0.15986 0.07643,0.191 0.06703,0.4192 -0.02089,0.50712 -0.08792,0.0879 -0.150453,-0.0683 -0.138964,-0.34726 z m 93.327414,-1.87849 c 0.190996,-0.0764 0.419199,-0.067 0.507118,0.0209 0.08792,0.0879 -0.06835,0.15045 -0.347266,0.13897 -0.308224,-0.0127 -0.370919,-0.0754 -0.159852,-0.15986 z m -93.062831,-0.50276 c 0.0127,-0.30823 0.07539,-0.37092 0.159852,-0.15986 0.07643,0.191 0.06703,0.4192 -0.02089,0.50712 -0.08792,0.0879 -0.150453,-0.0684 -0.138964,-0.34726 z m 95.229107,-0.21014 c 0,-0.0549 0.208359,-0.2633 0.463021,-0.46302 0.419643,-0.32911 0.429002,-0.31975 0.09989,0.0999 -0.345643,0.44073 -0.562915,0.58089 -0.562915,0.36313 z m -16.7183588,-0.8746 c 0.1909961,-0.0764 0.4191992,-0.067 0.5071181,0.0209 0.087919,0.0879 -0.068351,0.15045 -0.3472656,0.13897 -0.3082245,-0.0127 -0.3709192,-0.0754 -0.1598525,-0.15986 z M 0.54815536,132.6348 c 0.19099608,-0.0764 0.41919919,-0.067 0.50711804,0.0209 0.087919,0.0879 -0.0683507,0.15045 -0.34726562,0.13896 -0.30822448,-0.0127 -0.37091919,-0.0754 -0.15985242,-0.15985 z M -55.229316,131.62492 c 0.493656,-0.50933 0.957086,-0.92605 1.029847,-0.92605 0.07276,0 -0.271608,0.41672 -0.765263,0.92605 -0.493656,0.50932 -0.957086,0.92604 -1.029847,0.92604 -0.07276,0 0.271608,-0.41672 0.765263,-0.92604 z m 51.0149716,0.48071 c 0.1909961,-0.0764 0.4191992,-0.067 0.507118,0.0209 0.087919,0.0879 -0.068351,0.15045 -0.3472656,0.13897 -0.3082245,-0.0127 -0.3709192,-0.0754 -0.1598524,-0.15986 z M -75.31676,131.60287 c 0.0127,-0.30823 0.07539,-0.37092 0.159853,-0.15986 0.07643,0.191 0.06703,0.4192 -0.02089,0.50712 -0.08792,0.0879 -0.150452,-0.0684 -0.138963,-0.34726 z m 66.3399159,-0.0264 c 0.190996,-0.0764 0.4191992,-0.067 0.507118,0.0209 0.087919,0.0879 -0.068351,0.15046 -0.3472656,0.13897 -0.3082245,-0.0127 -0.3709192,-0.0754 -0.1598524,-0.15985 z m -2.3812499,-0.26459 c 0.190996,-0.0764 0.419199,-0.067 0.507118,0.0209 0.08792,0.0879 -0.06835,0.15045 -0.347266,0.13897 -0.308224,-0.0127 -0.370919,-0.0754 -0.159852,-0.15986 z m -2.38125,-0.26458 c 0.190996,-0.0764 0.419199,-0.067 0.507118,0.0209 0.08792,0.0879 -0.06835,0.15045 -0.347265,0.13896 -0.308225,-0.0127 -0.37092,-0.0754 -0.159853,-0.15985 z m -2.38125,-0.26458 c 0.190996,-0.0764 0.419199,-0.067 0.507118,0.0209 0.08792,0.0879 -0.06835,0.15046 -0.347265,0.13897 -0.308225,-0.0127 -0.37092,-0.0754 -0.159853,-0.15985 z m -2.38125,-0.26459 c 0.190996,-0.0764 0.4192,-0.067 0.507118,0.0209 0.08792,0.0879 -0.06835,0.15045 -0.347265,0.13897 -0.308225,-0.0127 -0.370919,-0.0754 -0.159853,-0.15986 z m -2.38125,-0.26458 c 0.190997,-0.0764 0.4192,-0.067 0.507119,0.0209 0.08792,0.0879 -0.06835,0.15045 -0.347266,0.13896 -0.308225,-0.0127 -0.370919,-0.0754 -0.159853,-0.15985 z m -54.169082,-1.03193 c 0.0127,-0.30823 0.07539,-0.37092 0.159852,-0.15986 0.07643,0.191 0.06703,0.4192 -0.02089,0.50712 -0.08792,0.0879 -0.150453,-0.0684 -0.138964,-0.34726 z m 94.666191,-0.57327 c -0.329108,-0.41964 -0.319749,-0.429 0.0999,-0.0999 0.440729,0.34564 0.580887,0.56291 0.363126,0.56291 -0.05494,0 -0.263302,-0.20836 -0.463021,-0.46302 z m -94.401608,-1.80798 c 0.0127,-0.30823 0.07539,-0.37092 0.159852,-0.15986 0.07643,0.191 0.06703,0.4192 -0.02089,0.50712 -0.08792,0.0879 -0.150453,-0.0683 -0.138964,-0.34726 z m 0.264583,-2.38125 c 0.0127,-0.30823 0.07539,-0.37092 0.159853,-0.15986 0.07643,0.191 0.06703,0.4192 -0.02089,0.50712 -0.08792,0.0879 -0.150452,-0.0684 -0.138963,-0.34726 z m 88.864864,-0.83785 -0.911798,-0.99219 0.992187,0.9118 c 0.923507,0.84868 1.11384,1.07258 0.911798,1.07258 -0.04421,0 -0.490698,-0.44649 -0.992187,-0.99219 z m -88.600281,-1.5434 c 0.0127,-0.30823 0.07539,-0.37092 0.159853,-0.15986 0.07643,0.191 0.06703,0.4192 -0.02089,0.50712 -0.08792,0.0879 -0.150453,-0.0683 -0.138965,-0.34726 z m 0.264584,-2.38125 c 0.0127,-0.30823 0.07539,-0.37092 0.159852,-0.15986 0.07643,0.191 0.06703,0.4192 -0.02089,0.50712 -0.08792,0.0879 -0.150453,-0.0683 -0.138964,-0.34726 z m 0.264583,-2.38125 c 0.0127,-0.30823 0.07539,-0.37092 0.159853,-0.15986 0.07643,0.191 0.06703,0.4192 -0.02089,0.50712 -0.08792,0.0879 -0.150452,-0.0683 -0.138963,-0.34726 z m 0.264583,-2.38125 c 0.0127,-0.30823 0.07539,-0.37092 0.159853,-0.15985 0.07643,0.19099 0.06703,0.41919 -0.02089,0.50711 -0.08792,0.0879 -0.150453,-0.0683 -0.138965,-0.34726 z m 76.1648649,-2.42535 -0.9117982,-0.99219 0.9921874,0.9118 c 0.5457031,0.50149 0.9921875,0.94797 0.9921875,0.99219 0,0.20204 -0.2238947,0.0117 -1.0725767,-0.9118 z m -75.9002809,0.0441 c 0.0127,-0.30823 0.07539,-0.37092 0.159852,-0.15985 0.07643,0.19099 0.06703,0.41919 -0.02089,0.50711 -0.08792,0.0879 -0.150453,-0.0684 -0.138964,-0.34726 z m 0.264583,-2.38125 c 0.0127,-0.30823 0.07539,-0.37092 0.159853,-0.15985 0.07643,0.19099 0.06703,0.41919 -0.02089,0.50711 -0.08792,0.0879 -0.150452,-0.0683 -0.138963,-0.34726 z m 0.264583,-2.38125 c 0.0127,-0.30823 0.07539,-0.37092 0.159853,-0.15985 0.07643,0.19099 0.06703,0.41919 -0.02089,0.50711 -0.08792,0.0879 -0.150453,-0.0683 -0.138965,-0.34726 z m 63.584868,-6.54192 -6.111949,-5.87145 6.508824,-0.132291 c 6.7942996,-0.138094 7.0388723,-0.180313 8.19296917,-1.414286 0.55420168,-0.592559 0.68518752,-1.193075 1.14470215,-5.24799 0.28538958,-2.518375 0.53955538,-4.593127 0.56481288,-4.61056 0.1233695,-0.08515 25.3956638,-0.639574 25.4763368,-0.558901 0.09971,0.09972 -29.1376084,23.571068 -29.4677173,23.656318 -0.1078164,0.0278 -2.9464068,-2.59154 -6.3079787,-5.82084 z m -82.721901,5.44653 c 0.472943,-0.0587 1.246849,-0.0587 1.719792,0 0.472943,0.0587 0.08599,0.10671 -0.859896,0.10671 -0.945885,0 -1.332838,-0.048 -0.859896,-0.10671 z m 11.377083,-0.26459 c 0.472943,-0.0587 1.246849,-0.0587 1.719792,0 0.472942,0.0587 0.08599,0.10672 -0.859896,0.10672 -0.945885,0 -1.332839,-0.048 -0.859896,-0.10672 z m -21.928023,-0.5362 c -0.3291,-0.41965 -0.31974,-0.429 0.0999,-0.0999 0.25466,0.19972 0.46302,0.40808 0.46302,0.46302 0,0.21776 -0.21727,0.0776 -0.56292,-0.36312 z m 60.49035,-6.416841 -6.346558,-6.350693 6.414771,-6.41477 6.41477,-6.414771 6.414771,6.414771 6.414771,6.41477 -6.346558,6.350693 c -3.490607,3.492881 -6.407949,6.350691 -6.482984,6.350691 -0.07503,0 -2.992377,-2.85781 -6.482983,-6.350691 z m -55.032638,2.801501 c 0.436562,-0.36378 2.755277,-2.24412 5.152699,-4.178513 2.397422,-1.934397 4.540547,-3.845895 4.7625,-4.247771 0.366434,-0.663481 0.361441,-0.804547 -0.05429,-1.533766 -0.251811,-0.441695 -0.35447,-0.739197 -0.228131,-0.661115 0.224027,0.138456 4.727288,-3.307899 5.113689,-3.913517 0.146603,-0.229776 0.195382,-0.229732 0.198438,1.79e-4 0.0054,0.406798 1.490545,0.907931 2.052097,0.692443 0.2451,-0.09405 2.890886,-2.129859 5.879524,-4.524013 2.988638,-2.394153 5.579221,-4.466979 5.756851,-4.60628 0.231187,-0.181301 2.073262,1.416853 6.482291,5.62393 3.387631,3.232462 6.199016,5.982578 6.247523,6.111368 0.04973,0.132028 -2.865913,0.234164 -6.684614,0.234164 h -6.772809 l -0.947317,0.868151 -0.947316,0.868151 -0.499887,4.357369 c -0.274938,2.396554 -0.50174,4.48982 -0.504006,4.6517 -0.0029,0.20509 -2.310386,0.34635 -7.61089,0.46591 -4.183724,0.0944 -9.988021,0.23491 -12.898437,0.31231 l -5.291666,0.14073 z m 8.020181,-11.183632 c 0.190996,-0.07643 0.4192,-0.06703 0.507118,0.02089 0.08792,0.08792 -0.06835,0.150452 -0.347265,0.138964 -0.308225,-0.0127 -0.370919,-0.07539 -0.159853,-0.159854 z m 6.664193,-5.739987 c 0,-0.05494 0.208359,-0.263301 0.463021,-0.463021 0.419643,-0.329107 0.429002,-0.319749 0.09989,0.09989 -0.345643,0.440729 -0.562915,0.580887 -0.562915,0.363126 z M 31.255681,80.229605 c -0.329108,-0.419643 -0.319749,-0.429002 0.0999,-0.09989 0.254661,0.199719 0.46302,0.408078 0.46302,0.46302 0,0.217761 -0.217272,0.0776 -0.562915,-0.363126 z M 7.9399518,79.707478 c 0.4729427,-0.05869 1.2468489,-0.05869 1.7197916,0 0.4729426,0.05869 0.08599,0.106712 -0.8598958,0.106712 -0.9458853,0 -1.3328384,-0.04802 -0.8598958,-0.106712 z M 19.317035,79.442895 c 0.472942,-0.05869 1.246848,-0.05869 1.719791,0 0.472943,0.05869 0.08599,0.106712 -0.859896,0.106712 -0.945885,0 -1.332838,-0.04802 -0.859895,-0.106712 z M 1.6769862,78.421619 c 0.012696,-0.308224 0.07539,-0.370919 0.1598524,-0.159852 0.07643,0.190996 0.067031,0.419199 -0.020888,0.507118 -0.087919,0.08792 -0.1504527,-0.06835 -0.1389644,-0.347266 z M 1.9415695,76.04037 c 0.012696,-0.308225 0.07539,-0.37092 0.1598524,-0.159853 0.07643,0.190996 0.067031,0.419199 -0.020888,0.507118 -0.087919,0.08792 -0.1504527,-0.06835 -0.1389644,-0.347265 z m -75.9705445,-2.689931 -0.911798,-0.992187 0.992187,0.911798 c 0.923507,0.848682 1.11384,1.072577 0.911799,1.072577 -0.04421,0 -0.490699,-0.446485 -0.992188,-0.992188 z M 2.2061528,73.65912 c 0.012696,-0.308225 0.075391,-0.37092 0.1598524,-0.159853 0.07643,0.190996 0.067031,0.419199 -0.020888,0.507118 -0.087919,0.08792 -0.1504528,-0.06835 -0.1389644,-0.347265 z M -33.314315,66.509338 c -0.118893,-9.0138 0.103644,-8.710862 -6.966043,-9.482807 -2.328333,-0.254233 -4.248713,-0.480475 -4.267511,-0.50276 -0.0841,-0.0997 -0.629114,-25.394587 -0.548889,-25.474811 0.04953,-0.04954 5.422445,6.577007 11.939802,14.725649 l 11.849738,14.815713 -5.495514,5.751673 c -3.022532,3.16342 -5.704582,5.977162 -5.960109,6.252759 -0.444216,0.479105 -0.468407,0.212162 -0.551474,-6.085416 z M 2.4707361,71.27787 c 0.012696,-0.308225 0.075391,-0.370919 0.1598524,-0.159853 0.07643,0.190996 0.067031,0.4192 -0.020888,0.507118 -0.087919,0.08792 -0.1504528,-0.06835 -0.1389644,-0.347265 z m 0.2645833,-2.38125 c 0.012696,-0.308225 0.075391,-0.370919 0.1598525,-0.159853 0.07643,0.190997 0.067031,0.4192 -0.020888,0.507118 -0.087919,0.08792 -0.1504527,-0.06835 -0.1389645,-0.347265 z m -82.4510414,-0.970139 -1.045884,-1.124479 1.124479,1.045884 c 1.045754,0.972662 1.246062,1.203074 1.045884,1.203074 -0.04323,0 -0.549243,-0.506015 -1.124479,-1.124479 z M 2.9999028,66.51537 c 0.012696,-0.308224 0.07539,-0.370919 0.1598524,-0.159852 0.07643,0.190996 0.067031,0.419199 -0.020888,0.507118 -0.087919,0.08792 -0.1504527,-0.06835 -0.1389644,-0.347266 z m 0.2645833,-2.38125 c 0.012696,-0.308224 0.07539,-0.370919 0.1598524,-0.159852 0.07643,0.190996 0.067031,0.419199 -0.020888,0.507118 -0.087919,0.08792 -0.1504527,-0.06835 -0.1389644,-0.347266 z m -88.8010411,-1.763889 -1.045884,-1.124479 1.124479,1.045884 c 1.045754,0.972662 1.246062,1.203074 1.045884,1.203074 -0.04323,0 -0.549243,-0.506015 -1.124479,-1.124479 z M 3.5290694,61.75287 c 0.012696,-0.308224 0.075391,-0.370919 0.1598524,-0.159852 0.07643,0.190996 0.067031,0.419199 -0.020888,0.507118 -0.087919,0.08792 -0.1504528,-0.06835 -0.1389644,-0.347266 z m 0.2645833,-2.38125 c 0.012696,-0.308224 0.075391,-0.370919 0.1598524,-0.159852 0.07643,0.190996 0.067031,0.419199 -0.020888,0.507118 -0.087919,0.08792 -0.1504528,-0.06835 -0.1389644,-0.347266 z M -90.717229,57.47544 c -0.329108,-0.419644 -0.31975,-0.429002 0.09989,-0.09989 0.254662,0.199719 0.463021,0.408079 0.463021,0.463021 0,0.217761 -0.217272,0.0776 -0.562915,-0.363126 z M 4.058236,56.990371 c 0.012696,-0.308225 0.075391,-0.37092 0.1598525,-0.159853 0.07643,0.190996 0.067031,0.419199 -0.020888,0.507118 -0.087919,0.08792 -0.1504527,-0.06835 -0.1389645,-0.347265 z m -54.310078,-1.084734 c 0.190996,-0.07643 0.419199,-0.06703 0.507118,0.02089 0.08792,0.08792 -0.06835,0.150453 -0.347266,0.138964 -0.308224,-0.0127 -0.370919,-0.07539 -0.159852,-0.159852 z m -2.38125,-0.264583 c 0.190996,-0.07643 0.419199,-0.06703 0.507118,0.02089 0.08792,0.08792 -0.06835,0.150453 -0.347265,0.138964 -0.308225,-0.0127 -0.37092,-0.07539 -0.159853,-0.159852 z m 36.694399,-0.877593 c 0.568389,-0.582083 1.092966,-1.058333 1.165727,-1.058333 0.07276,0 -0.332754,0.47625 -0.901143,1.058333 -0.56839,0.582083 -1.092966,1.058333 -1.165727,1.058333 -0.07276,0 0.332754,-0.47625 0.901143,-1.058333 z m -41.456899,0.348426 c 0.190996,-0.07643 0.4192,-0.06703 0.507118,0.02089 0.08792,0.08792 -0.06835,0.150453 -0.347265,0.138964 -0.308225,-0.01269 -0.370919,-0.07539 -0.159853,-0.159852 z M 4.3228194,54.609121 c 0.012696,-0.308225 0.07539,-0.37092 0.1598524,-0.159853 0.07643,0.190996 0.067031,0.419199 -0.020888,0.507118 -0.087919,0.08792 -0.1504527,-0.06835 -0.1389644,-0.347265 z m -66.4809104,-0.0264 c 0.190996,-0.07643 0.419199,-0.06703 0.507118,0.02089 0.08792,0.08792 -0.06835,0.150453 -0.347266,0.138965 -0.308224,-0.0127 -0.370919,-0.07539 -0.159852,-0.159853 z m -2.38125,-0.264583 c 0.190996,-0.07643 0.419199,-0.06703 0.507118,0.02089 0.08792,0.08792 -0.06835,0.150453 -0.347266,0.138964 -0.308224,-0.0127 -0.370919,-0.07539 -0.159852,-0.159852 z m -2.38125,-0.264583 c 0.190996,-0.07643 0.419199,-0.06703 0.507118,0.02089 0.08792,0.08792 -0.06835,0.150453 -0.347266,0.138964 -0.308224,-0.0127 -0.370919,-0.07539 -0.159852,-0.159852 z m -2.38125,-0.264584 c 0.190996,-0.07643 0.419199,-0.06703 0.507118,0.02089 0.08792,0.08792 -0.06835,0.150452 -0.347266,0.138964 -0.308224,-0.0127 -0.370919,-0.07539 -0.159852,-0.159853 z m -2.38125,-0.264583 c 0.190996,-0.07643 0.419199,-0.06703 0.507118,0.02089 0.08792,0.08792 -0.06835,0.150453 -0.347265,0.138964 -0.308225,-0.0127 -0.37092,-0.07539 -0.159853,-0.159852 z m -2.38125,-0.264583 c 0.190996,-0.07643 0.419199,-0.06703 0.507118,0.02089 0.08792,0.08792 -0.06835,0.150453 -0.347265,0.138964 -0.308225,-0.0127 -0.370919,-0.07539 -0.159853,-0.159852 z m -17.148306,-0.183738 c 0,-0.05494 0.208359,-0.263301 0.463021,-0.463021 0.419644,-0.329107 0.429002,-0.319749 0.0999,0.0999 -0.345644,0.440729 -0.562916,0.580887 -0.562916,0.363126 z m 14.767056,-0.08085 c 0.190996,-0.07643 0.4192,-0.06703 0.507118,0.02089 0.08792,0.08792 -0.06835,0.150452 -0.347265,0.138964 -0.308225,-0.0127 -0.370919,-0.07539 -0.159853,-0.159853 z M 4.5874027,52.227871 c 0.012696,-0.308225 0.07539,-0.370919 0.1598524,-0.159853 0.07643,0.190996 0.067031,0.4192 -0.020888,0.507118 -0.087919,0.08792 -0.1504527,-0.06835 -0.1389644,-0.347265 z M -88.616423,51.672304 c 0.190996,-0.07643 0.419199,-0.06703 0.507118,0.02089 0.08792,0.08792 -0.06835,0.150453 -0.347266,0.138964 -0.308224,-0.0127 -0.370919,-0.07539 -0.159852,-0.159852 z m 39.823927,-2.861968 c 0.0012,-1.018646 0.049,-1.402943 0.106272,-0.853994 0.05728,0.548949 0.05632,1.382386 -0.0021,1.852083 -0.05845,0.469697 -0.105311,0.02056 -0.104138,-0.998089 z m 38.542345,0 c 0.4936548,-0.509323 0.9570858,-0.926041 1.0298462,-0.926041 0.07276,0 -0.2716081,0.416718 -0.7652632,0.926041 -0.493655,0.509323 -0.957086,0.926042 -1.029847,0.926042 -0.07276,0 0.271608,-0.416719 0.765264,-0.926042 z m 4.7624994,-4.977582 c 0,-0.04553 0.3869531,-0.432487 0.8598958,-0.859895 l 0.8598958,-0.777106 -0.7771054,0.859896 c -0.7243711,0.801543 -0.9426862,0.981512 -0.9426862,0.777105 z M 5.9103193,40.057038 c 0.012696,-0.308224 0.07539,-0.370919 0.1598524,-0.159852 0.07643,0.190996 0.067031,0.419199 -0.020888,0.507118 -0.087919,0.08792 -0.1504527,-0.06835 -0.1389644,-0.347266 z M -49.057079,37.697837 c 0.0012,-1.018646 0.049,-1.402943 0.106272,-0.853995 0.05728,0.548949 0.05632,1.382387 -0.0021,1.852084 -0.05845,0.469697 -0.105312,0.02056 -0.104138,-0.998089 z m 53.8544278,-0.06615 c -0.3291074,-0.419644 -0.319749,-0.429002 0.099895,-0.09989 0.4407291,0.345644 0.5808871,0.562916 0.3631259,0.562916 -0.054942,0 -0.2633015,-0.20836 -0.4630208,-0.463021 z M -48.614733,26.617734 c 0,-0.05494 0.20836,-0.263301 0.463021,-0.463021 0.419644,-0.329107 0.429002,-0.319749 0.0999,0.0999 -0.345644,0.440729 -0.562916,0.580887 -0.562916,0.363126 z"
             id="path12" /><path
             style="fill:#fc4db5;fill-opacity:1"
             d="m -72.415221,143.40124 c -0.01206,-0.66162 4.904414,-45.684462 5.164767,-47.296635 l 0.138867,-0.859896 h 7.818839 7.818839 l 6.390525,6.521391 c 3.514789,3.58676 6.390526,6.6068 6.390526,6.71119 0,0.1044 -7.024687,7.54501 -15.610416,16.5347 -8.585729,8.98969 -16.170558,16.95317 -16.855177,17.69662 -1.148092,1.24675 -1.245693,1.30054 -1.25677,0.69263 z m 62.5619446,-15.89376 c -12.8058326,-1.43494 -23.3130976,-2.61359 -23.3494776,-2.61922 -0.03638,-0.006 -0.06615,-3.53729 -0.06615,-7.84815 v -7.83794 l 6.523283,-6.38342 c 3.587806,-3.510878 6.609552,-6.383416 6.714992,-6.383416 0.10544,0 5.146036,4.732736 11.2013245,10.517186 9.60941593,9.17962 11.1130912,10.51719 11.8232343,10.51719 0.4474904,0 1.0185491,-0.10968 1.2690193,-0.24373 0.3658112,-0.19577 0.8967978,0.18981 2.6991145,1.96002 2.0918087,2.05453 2.2190077,2.24094 1.878788,2.75334 -0.2084384,0.31392 -0.295796,0.82504 -0.203716,1.19192 0.088666,0.35327 1.6734414,2.08144 3.5217244,3.84038 l 3.360514,3.19807 -1.044661,-0.0266 c -0.574564,-0.0146 -11.5221607,-1.20066 -24.3279934,-2.63561 z m -15.8348116,-42.989972 -6.574396,-6.734786 2.870229,-3.006635 c 1.578626,-1.653648 9.180542,-9.623676 16.893145,-17.711172 9.1791846,-9.625363 14.0488183,-14.550187 14.0979042,-14.257683 0.064063,0.381755 -4.6839158,44.155259 -5.1352868,47.344248 l -0.1591594,1.124479 -7.70902,-0.01183 -7.709021,-0.01183 z M -65.548065,75.882307 C -73.624471,68.157776 -81.601658,60.530016 -83.275148,58.93173 l -3.042708,-2.905975 1.852084,0.170002 c 2.846911,0.261316 45.1283,4.907627 46.103643,5.066339 l 0.859896,0.139926 v 7.888067 7.888066 l -6.586828,6.387444 c -3.622755,3.513094 -6.629083,6.381563 -6.680728,6.374377 -0.05165,-0.0072 -6.70187,-6.333138 -14.778276,-14.057669 z"
             id="path11" /><path
             style="fill:#020303"
             d="m -26.257442,160.46563 c -0.491528,-0.25515 -5.427821,-6.20548 -12.964583,-15.62783 -6.693958,-8.36869 -12.355311,-15.45687 -12.580784,-15.75152 -0.394158,-0.51509 -0.784006,-0.14349 -10.1197,9.64584 -7.350542,7.70772 -9.934901,10.25587 -10.636402,10.48738 -1.980146,0.65351 -4.101654,-0.90529 -4.101654,-3.01373 0,-0.61668 0.9525,-9.67838 2.116667,-20.1371 1.164167,-10.45873 2.116667,-19.19065 2.116667,-19.40427 0,-0.41151 0.65323,-0.41549 -21.590264,0.13152 l -6.905885,0.16983 -0.97464,-0.89958 c -1.19114,-1.09942 -1.485,-2.38832 -0.8456,-3.70899 0.29788,-0.61527 2.42345,-2.485724 6.804709,-5.987992 5.393261,-4.311239 6.506311,-5.093229 7.249476,-5.093229 0.633342,0 1.030754,0.19424 1.426334,0.69714 1.168279,1.485225 0.880835,1.850493 -5.405324,6.868795 -2.689448,2.147016 -4.846975,3.946586 -4.794504,3.999056 0.08562,0.0856 25.36778,-0.46129 25.478495,-0.55116 0.02526,-0.0205 0.281493,-2.11603 0.569412,-4.656724 l 0.52349,-4.619449 0.948056,-0.868829 0.948057,-0.868829 h 6.772809 c 3.818701,0 6.73434,-0.102136 6.684614,-0.234164 -0.04851,-0.12879 -2.859892,-2.878906 -6.247523,-6.111368 -4.409029,-4.207077 -6.251104,-5.805231 -6.482291,-5.62393 -0.17763,0.139301 -2.768213,2.212127 -5.756851,4.60628 -2.988638,2.394154 -5.634424,4.429959 -5.879524,4.524013 -1.355292,0.520074 -2.97177,-1.243792 -2.363439,-2.578934 0.158317,-0.347468 2.705062,-2.562216 5.659433,-4.921663 2.954372,-2.359448 5.464107,-4.370922 5.577189,-4.469944 0.113083,-0.09902 -4.373143,-4.548986 -9.969391,-9.888808 -7.661541,-7.310481 -10.250025,-9.936106 -10.478727,-10.629082 -0.648563,-1.965163 0.911155,-4.095259 2.998752,-4.095378 0.607299,-3.4e-5 9.776432,0.961853 20.375852,2.137528 10.59942,1.175674 19.338975,2.070288 19.421232,1.988031 0.08226,-0.08226 0.01025,-5.895941 -0.160011,-12.919297 -0.412471,-17.014383 -0.468111,-15.374214 0.559291,-16.486962 1.057443,-1.145285 2.366471,-1.432182 3.669297,-0.804195 0.651368,0.313972 4.205525,4.570779 13.065598,15.648644 6.693958,8.369542 12.355311,15.458426 12.580784,15.753075 0.394158,0.515087 0.784007,0.143494 10.1197004,-9.645838 7.3505418,-7.707718 9.9349009,-10.25587 10.6364025,-10.487387 1.9801457,-0.653507 4.1016532,0.905291 4.1016532,3.01373 0,0.616686 -0.9524999,9.678385 -2.1166665,20.137109 C 2.608598,70.646143 1.656098,79.37806 1.656098,79.59168 c 0,0.411513 -0.6532303,0.415492 21.590264,-0.131519 l 6.90589,-0.169829 0.974635,0.899585 c 1.189965,1.098333 1.484524,2.387381 0.847537,3.708985 -0.314777,0.653091 -4.681959,4.289281 -16.16887,13.462473 L 0.06794281,109.92908 2.581812,112.38373 c 1.9856641,1.93889 2.5138692,2.60943 2.5138692,3.19126 0,1.05836 -0.8815718,1.89472 -1.9971567,1.89472 -0.8478433,0 -1.7619242,-0.80598 -11.927825,-10.51719 -6.0552885,-5.78445 -11.0958845,-10.517186 -11.2013245,-10.517186 -0.10544,0 -3.127186,2.872538 -6.714992,6.383416 l -6.523283,6.38342 v 7.82595 7.82594 l 0.859896,0.13924 c 1.306124,0.2115 46.822002,5.18434 47.412887,5.18011 0.356312,-0.003 -0.522218,-0.99125 -2.845019,-3.20177 -1.848283,-1.75894 -3.4328335,-3.48621 -3.5212237,-3.83839 -0.3140446,-1.25125 1.3195018,-2.73192 2.5182357,-2.28255 0.280069,0.10498 2.475431,2.0684 4.878582,4.36314 4.755695,4.54116 5.230866,5.24577 4.674497,6.93158 -0.447921,1.35722 -1.651104,2.25762 -3.016789,2.25762 -0.616686,0 -9.6783853,-0.9525 -20.1371094,-2.11667 -10.4587246,-1.16416 -19.1905796,-2.11666 -19.4041246,-2.11666 -0.407815,0 -0.402742,0.83798 0.132326,21.85474 l 0.169079,6.6412 -0.899841,0.9819 c -1.070959,1.16861 -2.530805,1.48208 -3.809938,0.81808 z m 0.368894,-18.02069 c -0.167342,-6.96966 -0.318801,-12.69079 -0.336576,-12.71362 -0.01778,-0.0228 -2.092476,-0.27592 -4.610446,-0.56241 -4.058668,-0.46179 -4.654341,-0.59217 -5.249815,-1.14911 -1.236896,-1.15685 -1.278707,-1.3987 -1.416848,-8.19584 l -0.132292,-6.50929 -5.904129,6.17549 c -5.320665,5.56522 -5.869751,6.22297 -5.55625,6.65587 1.135131,1.56745 23.352956,29.12867 23.424064,29.05756 0.0476,-0.0476 -0.05037,-5.789 -0.217708,-12.75865 z m -28.414726,-17.43295 c 8.585729,-8.98969 15.610416,-16.4303 15.610416,-16.5347 0,-0.10439 -2.875737,-3.12443 -6.390526,-6.71119 l -6.390525,-6.521391 h -7.818839 -7.818839 l -0.138867,0.859896 c -0.260353,1.612173 -5.176824,46.635015 -5.164767,47.296635 0.01108,0.60791 0.108678,0.55412 1.25677,-0.69263 0.684619,-0.74345 8.269448,-8.70693 16.855177,-17.69662 z m 66.40372,-29.749518 c 8.075373,-6.465907 14.640509,-11.798182 14.589191,-11.8495 -0.08067,-0.08067 -25.3529673,0.473752 -25.4763368,0.558901 -0.025257,0.01743 -0.2794233,2.092185 -0.56481288,4.61056 -0.45951463,4.054915 -0.59050047,4.655431 -1.14470215,5.24799 -1.15409687,1.233973 -1.39866957,1.276192 -8.19296917,1.414286 l -6.508824,0.132291 6.111949,5.87145 c 3.3615719,3.2293 6.2001623,5.84868 6.3079787,5.82084 0.1078163,-0.0278 6.8031531,-5.34091 14.8785263,-11.806818 z m -41.003029,4.214877 6.346558,-6.350693 -6.414771,-6.41477 -6.414771,-6.414771 -6.41477,6.414771 -6.414771,6.41477 6.346558,6.350693 c 3.490606,3.492881 6.407949,6.350691 6.482983,6.350691 0.07503,0 2.992377,-2.85781 6.482984,-6.350691 z M -3.5364926,90.15148 c 0.451371,-3.188989 5.1993501,-46.962493 5.1352868,-47.344248 -0.049086,-0.292504 -4.9187196,4.63232 -14.0979042,14.257683 -7.712603,8.087496 -15.314519,16.057524 -16.893145,17.711172 l -2.870229,3.006635 6.574396,6.734786 6.574395,6.734786 7.709021,0.01183 7.70902,0.01183 z m -40.5525684,-6.585881 6.586828,-6.387444 v -7.888066 -7.888067 l -0.859896,-0.139926 c -0.975343,-0.158712 -43.256732,-4.805023 -46.103643,-5.066339 l -1.852084,-0.170002 3.042708,2.905975 c 1.67349,1.598286 9.650677,9.226046 17.727083,16.950577 8.076406,7.724531 14.72663,14.050482 14.778276,14.057669 0.05165,0.0072 3.057973,-2.861283 6.680728,-6.374377 z m 17.286329,-17.223604 5.495514,-5.751673 -11.849738,-14.815713 c -6.517357,-8.148642 -11.890268,-14.775184 -11.939802,-14.725649 -0.08022,0.08022 0.464788,25.375107 0.548889,25.474811 0.0188,0.02228 1.939178,0.248527 4.267511,0.50276 4.722321,0.515634 5.611738,0.800941 6.361625,2.040684 0.469762,0.77663 0.525562,1.463684 0.604418,7.442123 0.08307,6.297578 0.107258,6.564521 0.551474,6.085416 0.255527,-0.275597 2.937577,-3.089339 5.960109,-6.252759 z"
             id="path10" /></g></g></g></g></svg>
